<svg version="1.2" baseProfile="tiny" id="Layer_1" xmlns="http://www.w3.org/2000/svg"
		 x="0px" y="0px" viewBox="0 0 354.7 215" overflow="visible" xml:space="preserve">
<rect x="225.4" y="36.7" fill="#FFFFFF" width="38.5" height="169.2"/>
<rect x="225.4" y="74.9" fill="#F2917E" width="38.5" height="131"/>
<rect x="225.4" y="113.5" fill="#FCC85E" width="38.5" height="92.4"/>
<rect x="225.4" y="171.8" fill="#325A69" width="38.5" height="34.1"/>
<rect x="294.3" y="4.4" fill="#FFFFFF" width="38.5" height="201.5"/>
<rect x="294.3" y="29.4" fill="#F2917E" width="38.5" height="176.5"/>
<rect x="294.3" y="113.1" fill="#FCC85E" width="38.5" height="92.8"/>
<rect x="294.3" y="139.3" fill="#325A69" width="38.5" height="66.6"/>
<rect x="156.5" y="80.8" fill="#FFFFFF" width="38.5" height="125.1"/>
<rect x="156.5" y="99.3" fill="#F2917E" width="38.5" height="106.6"/>
<rect x="156.5" y="142.5" fill="#FCC85E" width="38.5" height="63.4"/>
<rect x="156.5" y="178.2" fill="#325A69" width="38.5" height="27.7"/>
<rect x="87.5" y="126.4" fill="#FFFFFF" width="38.5" height="79.5"/>
<rect x="87.6" y="144.4" fill="#F2917E" width="38.5" height="61.5"/>
<rect x="87.6" y="169.3" fill="#FCC85E" width="38.5" height="36.6"/>
<rect x="87.6" y="178.8" fill="#325A69" width="38.5" height="27.1"/>
<rect x="18.6" y="153.5" fill="#FFFFFF" width="38.5" height="52.4"/>
<rect x="18.6" y="165.3" fill="#F2917E" width="38.5" height="40.6"/>
<rect x="18.6" y="171.6" fill="#FCC85E" width="38.5" height="34.3"/>
<rect x="18.6" y="195.3" fill="#325A69" width="38.5" height="10.6"/>
<path fill="#5995AB" d="M355.1,210.4c0,2.5-2,4.5-4.5,4.5c0,0,0,0,0,0H4.3c-2.5-0.1-4.4-2.2-4.3-4.7c0.1-2.3,2-4.2,4.3-4.3h346.3
	C353.1,205.9,355.1,207.9,355.1,210.4z"/>
<path fill="#184657" d="M37.9,154.7c-0.7,0-1.2-0.6-1.2-1.2c0-0.5,0.3-0.9,0.8-1.1l69.4-27.5l68.2-45.1l69.5-44l0.1-0.1l68.4-32.5
	c0.6-0.4,1.3-0.2,1.7,0.4c0.4,0.6,0.2,1.3-0.4,1.7c-0.1,0.1-0.2,0.1-0.3,0.1l-68.3,32.5l-69.4,43.9L108.1,127
	c-0.1,0-0.1,0.1-0.2,0.1l-69.6,27.5C38.2,154.7,38,154.7,37.9,154.7z"/>
<path fill="#FFFFFF" d="M34.7,153.5c0-1.8,1.4-3.2,3.1-3.2c1.8,0,3.2,1.4,3.2,3.1c0,1.8-1.4,3.2-3.1,3.2c0,0,0,0,0,0
	C36.2,156.6,34.7,155.2,34.7,153.5z"/>
<path fill="#184657" d="M37.9,157.8c-2.4,0-4.3-2-4.3-4.4c0-2.4,2-4.3,4.4-4.3c2.4,0,4.3,2,4.3,4.4
	C42.3,155.9,40.3,157.9,37.9,157.8C37.9,157.8,37.9,157.8,37.9,157.8z M37.9,151.5c-1.1,0-1.9,0.9-1.9,2s0.9,1.9,2,1.9
	c1,0,1.9-0.9,1.9-1.9C39.9,152.4,39,151.5,37.9,151.5C37.9,151.5,37.9,151.5,37.9,151.5L37.9,151.5z"/>
<path fill="#FFFFFF" d="M102.6,126.9c0-1.8,1.4-3.2,3.1-3.2c1.8,0,3.2,1.4,3.2,3.1c0,1.8-1.4,3.2-3.1,3.2c0,0,0,0,0,0
	C104,130.1,102.6,128.7,102.6,126.9C102.6,126.9,102.6,126.9,102.6,126.9z"/>
<path fill="#184657" d="M105.8,131.2c-2.4,0-4.3-2-4.3-4.4c0-2.4,2-4.3,4.4-4.3c2.4,0,4.3,2,4.3,4.4
	C110.1,129.3,108.2,131.3,105.8,131.2z M105.8,124.9c-1.1,0-1.9,0.9-1.9,2c0,1.1,0.9,1.9,2,1.9c1.1,0,1.9-0.9,1.9-1.9
	C107.7,125.8,106.8,125,105.8,124.9L105.8,124.9z"/>
<ellipse fill="#FFFFFF" cx="174.9" cy="81.8" rx="3.2" ry="3.2"/>
<path fill="#184657" d="M174.9,86.2c-2.4,0-4.3-2-4.3-4.4c0-2.4,2-4.3,4.4-4.3c2.4,0,4.3,2,4.3,4.4
	C179.3,84.2,177.3,86.2,174.9,86.2z M174.9,79.9c-1.1,0-2,0.9-2,2c0,1.1,0.9,2,2,2c1.1,0,2-0.9,2-2c0,0,0,0,0,0
	C176.9,80.7,176,79.9,174.9,79.9z"/>
<ellipse fill="#FFFFFF" cx="244.4" cy="37.2" rx="3.2" ry="3.2"/>
<path fill="#184657" d="M244.4,41.6c-2.4,0-4.3-2-4.3-4.4c0-2.4,2-4.3,4.4-4.3c2.4,0,4.3,2,4.3,4.4
	C248.8,39.7,246.8,41.6,244.4,41.6L244.4,41.6z M244.4,35.3c-1.1,0-1.9,0.9-1.9,2s0.9,1.9,2,1.9c1,0,1.9-0.9,1.9-1.9
	C246.4,36.2,245.5,35.3,244.4,35.3z"/>
<ellipse fill="#FFFFFF" cx="314.1" cy="4.4" rx="3.2" ry="3.1"/>
<path fill="#184657" d="M314.1,8.7c-2.4,0-4.3-2-4.3-4.4c0-2.4,2-4.3,4.4-4.3c2.4,0,4.3,2,4.3,4.4C318.5,6.8,316.5,8.7,314.1,8.7
	L314.1,8.7z M314.1,2.4c-1.1,0-1.9,0.9-1.9,2s0.9,1.9,2,1.9c1,0,1.9-0.9,1.9-1.9C316.1,3.3,315.2,2.4,314.1,2.4z"/>
</svg>
