<svg width="100%" height="100%" viewBox="0 0 1800 600" version="1.1" xmlns="http://www.w3.org/2000/svg" xmlns:xlink="http://www.w3.org/1999/xlink" xml:space="preserve" xmlns:serif="http://www.serif.com/" style="fill-rule:evenodd;clip-rule:evenodd;stroke-linejoin:round;stroke-miterlimit:2;">
    <g id="Artboard1" transform="matrix(1.66667,0,0,0.555556,0,0)">
        <rect x="0" y="0" width="1080" height="1080" style="fill:none;"/>
        <g transform="matrix(2.5,0,0,7.5,-12.1063,-48.9563)">
            <path d="M294.324,120.08C290.019,120.08 286.528,116.59 286.528,112.283C286.528,107.976 290.019,104.486 294.324,104.486C298.629,104.486 302.12,107.976 302.12,112.283C302.12,116.59 298.629,120.08 294.324,120.08" style="fill:rgb(215,35,35);fill-rule:nonzero;"/>
        </g>
        <g transform="matrix(2.5,0,0,7.5,-12.1063,-48.9563)">
            <path d="M285.742,112.283C285.742,107.55 289.592,103.7 294.324,103.7C299.056,103.7 302.906,107.55 302.906,112.283C302.906,117.016 299.056,120.866 294.324,120.866C289.592,120.866 285.742,117.016 285.742,112.283M301.334,112.283C301.334,108.417 298.19,105.272 294.324,105.272C290.459,105.272 287.314,108.417 287.314,112.283C287.314,116.149 290.459,119.294 294.324,119.294C298.19,119.294 301.334,116.149 301.334,112.283" style="fill:rgb(215,35,35);fill-rule:nonzero;"/>
        </g>
        <g transform="matrix(2.5,0,0,7.5,-12.1063,-82.2862)">
            <path d="M237.225,122.302C232.92,122.302 229.429,118.812 229.429,114.505C229.429,110.198 232.92,106.708 237.225,106.708C241.53,106.708 245.021,110.198 245.021,114.505C245.021,118.812 241.53,122.302 237.225,122.302" style="fill:white;fill-rule:nonzero;"/>
        </g>
        <g transform="matrix(2.5,0,0,7.5,-12.1063,-82.2862)">
            <path d="M228.643,114.505C228.643,109.772 232.493,105.922 237.225,105.922C241.957,105.922 245.807,109.772 245.807,114.505C245.807,119.238 241.957,123.088 237.225,123.088C232.493,123.088 228.643,119.238 228.643,114.505M244.235,114.505C244.235,110.639 241.091,107.494 237.225,107.494C233.36,107.494 230.215,110.639 230.215,114.505C230.215,118.371 233.36,121.516 237.225,121.516C241.091,121.516 244.235,118.371 244.235,114.505" style="fill:rgb(0,0,0);fill-rule:nonzero;"/>
        </g>
        <g transform="matrix(2.5,0,0,7.5,-12.1063,-909.649)">
            <path d="M383.661,175.9C380.217,175.9 377.424,173.108 377.424,169.662C377.424,166.217 380.217,163.425 383.661,163.425C387.105,163.425 389.898,166.217 389.898,169.662C389.898,173.108 387.105,175.9 383.661,175.9" style="fill:white;fill-rule:nonzero;"/>
        </g>
        <g transform="matrix(2.5,0,0,7.5,-12.1063,-909.641)">
            <path d="M376.638,169.662C376.638,165.79 379.788,162.639 383.661,162.639C387.533,162.639 390.683,165.79 390.683,169.662C390.683,173.534 387.533,176.685 383.661,176.685C379.788,176.685 376.638,173.534 376.638,169.662M389.112,169.662C389.112,166.656 386.667,164.21 383.661,164.21C380.655,164.21 378.21,166.656 378.21,169.662C378.21,172.668 380.655,175.114 383.661,175.114C386.667,175.114 389.112,172.668 389.112,169.662" style="fill:rgb(0,0,0);fill-rule:nonzero;"/>
        </g>
        <g transform="matrix(2.5,0,0,7.5,-12.1063,-422.021)">
            <path d="M392.224,144.951C387.919,144.951 384.428,141.461 384.428,137.154C384.428,132.847 387.919,129.357 392.224,129.357C396.529,129.357 400.02,132.847 400.02,137.154C400.02,141.461 396.529,144.951 392.224,144.951" style="fill:white;fill-rule:nonzero;"/>
        </g>
        <g transform="matrix(2.5,0,0,7.5,-12.1063,-422.006)">
            <path d="M383.641,137.153C383.641,132.42 387.491,128.57 392.223,128.57C396.955,128.57 400.805,132.42 400.805,137.153C400.805,141.886 396.955,145.736 392.223,145.736C387.491,145.736 383.641,141.886 383.641,137.153M399.233,137.153C399.233,133.287 396.089,130.142 392.223,130.142C388.358,130.142 385.213,133.287 385.213,137.153C385.213,141.019 388.358,144.164 392.223,144.164C396.089,144.164 399.233,141.019 399.233,137.153" style="fill:rgb(0,0,0);fill-rule:nonzero;"/>
        </g>
        <g transform="matrix(2.5,0,0,7.5,-12.1063,-573.214)">
            <path d="M404.047,153.471C400.603,153.471 397.81,150.679 397.81,147.234C397.81,143.788 400.603,140.996 404.047,140.996C407.491,140.996 410.284,143.788 410.284,147.234C410.284,150.679 407.491,153.471 404.047,153.471" style="fill:white;fill-rule:nonzero;"/>
        </g>
        <g transform="matrix(2.5,0,0,7.5,-12.1063,-573.229)">
            <path d="M397.025,147.235C397.025,143.364 400.174,140.211 404.048,140.211C407.919,140.211 411.07,143.364 411.07,147.235C411.07,151.107 407.919,154.258 404.048,154.258C400.174,154.258 397.025,151.107 397.025,147.235M409.499,147.235C409.499,144.229 407.053,141.783 404.048,141.783C401.042,141.783 398.596,144.229 398.596,147.235C398.596,150.241 401.042,152.687 404.048,152.687C407.053,152.687 409.499,150.241 409.499,147.235" style="fill:rgb(0,0,0);fill-rule:nonzero;"/>
        </g>
        <g transform="matrix(2.5,0,0,7.5,-12.1063,-769.301)">
            <path d="M426.276,168.103C421.971,168.103 418.48,164.613 418.48,160.306C418.48,155.999 421.971,152.509 426.276,152.509C430.581,152.509 434.072,155.999 434.072,160.306C434.072,164.613 430.581,168.103 426.276,168.103" style="fill:white;fill-rule:nonzero;"/>
        </g>
        <g transform="matrix(2.5,0,0,7.5,-12.1063,-769.301)">
            <path d="M417.694,160.306C417.694,155.573 421.544,151.723 426.276,151.723C431.008,151.723 434.858,155.573 434.858,160.306C434.858,165.039 431.008,168.889 426.276,168.889C421.544,168.889 417.694,165.039 417.694,160.306M433.286,160.306C433.286,156.44 430.142,153.295 426.276,153.295C422.41,153.295 419.266,156.44 419.266,160.306C419.266,164.172 422.41,167.317 426.276,167.317C430.142,167.317 433.286,164.172 433.286,160.306" style="fill:rgb(0,0,0);fill-rule:nonzero;"/>
        </g>
        <g transform="matrix(2.5,0,0,7.5,-12.1063,-816.079)">
            <path d="M221.632,171.221C217.327,171.221 213.836,167.731 213.836,163.425C213.836,159.117 217.327,155.628 221.632,155.628C225.937,155.628 229.428,159.117 229.428,163.425C229.428,167.731 225.937,171.221 221.632,171.221" style="fill:white;fill-rule:nonzero;"/>
        </g>
        <g transform="matrix(2.5,0,0,7.5,-12.1063,-816.086)">
            <path d="M213.05,163.425C213.05,158.692 216.9,154.842 221.632,154.842C226.364,154.842 230.214,158.692 230.214,163.425C230.214,168.158 226.364,172.008 221.632,172.008C216.9,172.008 213.05,168.158 213.05,163.425M228.642,163.425C228.642,159.559 225.498,156.414 221.632,156.414C217.767,156.414 214.622,159.559 214.622,163.425C214.622,167.291 217.767,170.436 221.632,170.436C225.498,170.436 228.642,167.291 228.642,163.425" style="fill:rgb(0,0,0);fill-rule:nonzero;"/>
        </g>
        <g transform="matrix(2.5,0,0,7.5,-12.1063,-48.9488)">
            <path d="M360.266,118.52C356.822,118.52 354.029,115.728 354.029,112.283C354.029,108.837 356.822,106.045 360.266,106.045C363.71,106.045 366.503,108.837 366.503,112.283C366.503,115.728 363.71,118.52 360.266,118.52" style="fill:white;fill-rule:nonzero;"/>
        </g>
        <g transform="matrix(2.5,0,0,7.5,-12.1063,-48.9638)">
            <path d="M353.243,112.284C353.243,108.412 356.393,105.26 360.266,105.26C364.138,105.26 367.289,108.412 367.289,112.284C367.289,116.156 364.138,119.307 360.266,119.307C356.393,119.307 353.243,116.156 353.243,112.284M365.717,112.284C365.717,109.278 363.272,106.832 360.266,106.832C357.26,106.832 354.815,109.278 354.815,112.284C354.815,115.29 357.26,117.736 360.266,117.736C363.272,117.736 365.717,115.29 365.717,112.284" style="fill:rgb(0,0,0);fill-rule:nonzero;"/>
        </g>
        <g transform="matrix(2.5,0,0,7.5,-12.1063,-199.234)">
            <path d="M368.648,128.539C365.204,128.539 362.411,125.747 362.411,122.301C362.411,118.856 365.204,116.064 368.648,116.064C372.092,116.064 374.885,118.856 374.885,122.301C374.885,125.747 372.092,128.539 368.648,128.539" style="fill:white;fill-rule:nonzero;"/>
        </g>
        <g transform="matrix(2.5,0,0,7.5,-12.1063,-199.226)">
            <path d="M361.626,122.301C361.626,118.428 364.776,115.278 368.649,115.278C372.521,115.278 375.671,118.428 375.671,122.301C375.671,126.173 372.521,129.324 368.649,129.324C364.776,129.324 361.626,126.173 361.626,122.301M374.1,122.301C374.1,119.295 371.655,116.848 368.649,116.848C365.643,116.848 363.198,119.295 363.198,122.301C363.198,125.306 365.643,127.753 368.649,127.753C371.655,127.753 374.1,125.306 374.1,122.301" style="fill:rgb(0,0,0);fill-rule:nonzero;"/>
        </g>
        <g transform="matrix(2.5,0,0,7.5,-12.1063,-503.224)">
            <path d="M347.792,148.805C344.348,148.805 341.555,146.013 341.555,142.567C341.555,139.122 344.348,136.33 347.792,136.33C351.236,136.33 354.029,139.122 354.029,142.567C354.029,146.013 351.236,148.805 347.792,148.805" style="fill:white;fill-rule:nonzero;"/>
        </g>
        <g transform="matrix(2.5,0,0,7.5,-12.1063,-503.231)">
            <path d="M340.77,142.568C340.77,138.696 343.92,135.545 347.793,135.545C351.665,135.545 354.815,138.696 354.815,142.568C354.815,146.44 351.665,149.591 347.793,149.591C343.92,149.591 340.77,146.44 340.77,142.568M353.244,142.568C353.244,139.562 350.799,137.116 347.793,137.116C344.787,137.116 342.342,139.562 342.342,142.568C342.342,145.574 344.787,148.02 347.793,148.02C350.799,148.02 353.244,145.574 353.244,142.568" style="fill:rgb(0,0,0);fill-rule:nonzero;"/>
        </g>
        <g transform="matrix(2.5,0,0,7.5,-12.1063,-675.739)">
            <path d="M356.175,160.306C352.731,160.306 349.938,157.514 349.938,154.068C349.938,150.623 352.731,147.831 356.175,147.831C359.619,147.831 362.412,150.623 362.412,154.068C362.412,157.514 359.619,160.306 356.175,160.306" style="fill:white;fill-rule:nonzero;"/>
        </g>
        <g transform="matrix(2.5,0,0,7.5,-12.1063,-675.731)">
            <path d="M349.152,154.068C349.152,150.196 352.302,147.045 356.175,147.045C360.047,147.045 363.197,150.196 363.197,154.068C363.197,157.94 360.047,161.091 356.175,161.091C352.302,161.091 349.152,157.94 349.152,154.068M361.626,154.068C361.626,151.062 359.181,148.616 356.175,148.616C353.169,148.616 350.724,151.062 350.724,154.068C350.724,157.074 353.169,159.52 356.175,159.52C359.181,159.52 361.626,157.074 361.626,154.068" style="fill:rgb(0,0,0);fill-rule:nonzero;"/>
        </g>
        <g transform="matrix(2.5,0,0,7.5,-12.1063,-386.089)">
            <path d="M255.488,140.996C252.044,140.996 249.251,138.204 249.251,134.758C249.251,131.313 252.044,128.521 255.488,128.521C258.932,128.521 261.725,131.313 261.725,134.758C261.725,138.204 258.932,140.996 255.488,140.996" style="fill:white;fill-rule:nonzero;"/>
        </g>
        <g transform="matrix(2.5,0,0,7.5,-12.1063,-386.089)">
            <path d="M248.465,134.759C248.465,130.887 251.615,127.735 255.488,127.735C259.36,127.735 262.51,130.887 262.51,134.759C262.51,138.631 259.36,141.782 255.488,141.782C251.615,141.782 248.465,138.631 248.465,134.759M260.939,134.759C260.939,131.753 258.494,129.307 255.488,129.307C252.482,129.307 250.037,131.753 250.037,134.759C250.037,137.765 252.482,140.211 255.488,140.211C258.494,140.211 260.939,137.765 260.939,134.759" style="fill:rgb(0,0,0);fill-rule:nonzero;"/>
        </g>
        <g transform="matrix(2.5,0,0,7.5,-12.1063,-573.214)">
            <path d="M245.021,153.471C241.577,153.471 238.784,150.679 238.784,147.234C238.784,143.788 241.577,140.996 245.021,140.996C248.465,140.996 251.258,143.788 251.258,147.234C251.258,150.679 248.465,153.471 245.021,153.471" style="fill:white;fill-rule:nonzero;"/>
        </g>
        <g transform="matrix(2.5,0,0,7.5,-12.1063,-573.229)">
            <path d="M237.998,147.235C237.998,143.364 241.148,140.211 245.021,140.211C248.893,140.211 252.043,143.364 252.043,147.235C252.043,151.107 248.893,154.258 245.021,154.258C241.148,154.258 237.998,151.107 237.998,147.235M250.472,147.235C250.472,144.229 248.027,141.783 245.021,141.783C242.015,141.783 239.57,144.229 239.57,147.235C239.57,150.241 242.015,152.687 245.021,152.687C248.027,152.687 250.472,150.241 250.472,147.235" style="fill:rgb(0,0,0);fill-rule:nonzero;"/>
        </g>
        <g transform="matrix(2.5,0,0,7.5,-12.1063,-1026.6)">
            <path d="M258.581,183.697C255.137,183.697 252.344,180.904 252.344,177.458C252.344,174.014 255.137,171.221 258.581,171.221C262.025,171.221 264.818,174.014 264.818,177.458C264.818,180.904 262.025,183.697 258.581,183.697" style="fill:white;fill-rule:nonzero;"/>
        </g>
        <g transform="matrix(2.5,0,0,7.5,-12.1063,-1026.59)">
            <path d="M251.559,177.458C251.559,173.586 254.708,170.435 258.582,170.435C262.453,170.435 265.604,173.586 265.604,177.458C265.604,181.33 262.453,184.482 258.582,184.482C254.708,184.482 251.559,181.33 251.559,177.458M264.033,177.458C264.033,174.452 261.587,172.006 258.582,172.006C255.576,172.006 253.131,174.452 253.131,177.458C253.131,180.464 255.576,182.91 258.582,182.91C261.587,182.91 264.033,180.464 264.033,177.458" style="fill:rgb(0,0,0);fill-rule:nonzero;"/>
        </g>
        <g transform="matrix(2.5,0,0,7.5,-12.1063,-863.044)">
            <path d="M266.39,172.793C262.946,172.793 260.153,170.001 260.153,166.555C260.153,163.11 262.946,160.318 266.39,160.318C269.834,160.318 272.627,163.11 272.627,166.555C272.627,170.001 269.834,172.793 266.39,172.793" style="fill:white;fill-rule:nonzero;"/>
        </g>
        <g transform="matrix(2.5,0,0,7.5,-12.1063,-863.044)">
            <path d="M259.367,166.555C259.367,162.683 262.517,159.532 266.39,159.532C270.262,159.532 273.412,162.683 273.412,166.555C273.412,170.427 270.262,173.579 266.39,173.579C262.517,173.579 259.367,170.427 259.367,166.555M271.841,166.555C271.841,163.549 269.396,161.103 266.39,161.103C263.384,161.103 260.939,163.549 260.939,166.555C260.939,169.561 263.384,172.007 266.39,172.007C269.396,172.007 271.841,169.561 271.841,166.555" style="fill:rgb(0,0,0);fill-rule:nonzero;"/>
        </g>
        <g transform="matrix(2.5,0,0,7.5,-12.1063,-503.224)">
            <path d="M302.12,148.805C298.676,148.805 295.883,146.013 295.883,142.567C295.883,139.122 298.676,136.33 302.12,136.33C305.564,136.33 308.357,139.122 308.357,142.567C308.357,146.013 305.564,148.805 302.12,148.805" style="fill:white;fill-rule:nonzero;"/>
        </g>
        <g transform="matrix(2.5,0,0,7.5,-12.1063,-503.231)">
            <path d="M295.097,142.568C295.097,138.696 298.247,135.545 302.12,135.545C305.992,135.545 309.142,138.696 309.142,142.568C309.142,146.44 305.992,149.591 302.12,149.591C298.247,149.591 295.097,146.44 295.097,142.568M307.571,142.568C307.571,139.562 305.126,137.116 302.12,137.116C299.114,137.116 296.669,139.562 296.669,142.568C296.669,145.574 299.114,148.02 302.12,148.02C305.126,148.02 307.571,145.574 307.571,142.568" style="fill:rgb(0,0,0);fill-rule:nonzero;"/>
        </g>
        <g transform="matrix(2.5,0,0,7.5,-12.1063,-189.484)">
            <path d="M283.254,127.889C279.81,127.889 277.017,125.097 277.017,121.651C277.017,118.206 279.81,115.414 283.254,115.414C286.698,115.414 289.491,118.206 289.491,121.651C289.491,125.097 286.698,127.889 283.254,127.889" style="fill:white;fill-rule:nonzero;"/>
        </g>
        <g transform="matrix(2.5,0,0,7.5,-12.1063,-189.491)">
            <path d="M276.231,121.652C276.231,117.78 279.381,114.629 283.254,114.629C287.126,114.629 290.277,117.78 290.277,121.652C290.277,125.524 287.126,128.675 283.254,128.675C279.381,128.675 276.231,125.524 276.231,121.652M288.705,121.652C288.705,118.646 286.26,116.2 283.254,116.2C280.248,116.2 277.803,118.646 277.803,121.652C277.803,124.658 280.248,127.104 283.254,127.104C286.26,127.104 288.705,124.658 288.705,121.652" style="fill:rgb(0,0,0);fill-rule:nonzero;"/>
        </g>
        <g transform="matrix(2.5,0,0,7.5,-12.1063,-1003.21)">
            <path d="M339.996,183.697C335.691,183.697 332.2,180.207 332.2,175.9C332.2,171.593 335.691,168.103 339.996,168.103C344.301,168.103 347.792,171.593 347.792,175.9C347.792,180.207 344.301,183.697 339.996,183.697" style="fill:white;fill-rule:nonzero;"/>
        </g>
        <g transform="matrix(2.5,0,0,7.5,-12.1063,-1003.21)">
            <path d="M331.414,175.9C331.414,171.167 335.264,167.317 339.996,167.317C344.728,167.317 348.578,171.167 348.578,175.9C348.578,180.633 344.728,184.483 339.996,184.483C335.264,184.483 331.414,180.633 331.414,175.9M347.006,175.9C347.006,172.034 343.862,168.889 339.996,168.889C336.131,168.889 332.986,172.034 332.986,175.9C332.986,179.766 336.131,182.911 339.996,182.911C343.862,182.911 347.006,179.766 347.006,175.9" style="fill:rgb(0,0,0);fill-rule:nonzero;"/>
        </g>
        <g transform="matrix(2.5,0,0,7.5,-12.1063,-269.216)">
            <path d="M325.975,134.764C321.67,134.764 318.179,131.274 318.179,126.967C318.179,122.66 321.67,119.17 325.975,119.17C330.28,119.17 333.771,122.66 333.771,126.967C333.771,131.274 330.28,134.764 325.975,134.764" style="fill:white;fill-rule:nonzero;"/>
        </g>
        <g transform="matrix(2.5,0,0,7.5,-12.1063,-269.224)">
            <path d="M317.393,126.968C317.393,122.234 321.243,118.384 325.975,118.384C330.707,118.384 334.557,122.234 334.557,126.968C334.557,131.701 330.707,135.551 325.975,135.551C321.243,135.551 317.393,131.701 317.393,126.968M332.985,126.968C332.985,123.102 329.841,119.956 325.975,119.956C322.11,119.956 318.965,123.102 318.965,126.968C318.965,130.833 322.11,133.979 325.975,133.979C329.841,133.979 332.985,130.833 332.985,126.968" style="fill:rgb(0,0,0);fill-rule:nonzero;"/>
        </g>
        <g transform="matrix(2.5,0,0,7.5,-12.1063,362.419)">
            <path d="M352.457,92.655C348.152,92.655 344.661,89.165 344.661,84.858C344.661,80.551 348.152,77.061 352.457,77.061C356.762,77.061 360.253,80.551 360.253,84.858C360.253,89.165 356.762,92.655 352.457,92.655" style="fill:white;fill-rule:nonzero;"/>
        </g>
        <g transform="matrix(2.5,0,0,7.5,-12.1063,362.419)">
            <path d="M343.875,84.858C343.875,80.125 347.725,76.275 352.457,76.275C357.189,76.275 361.039,80.125 361.039,84.858C361.039,89.591 357.189,93.441 352.457,93.441C347.725,93.441 343.875,89.591 343.875,84.858M359.467,84.858C359.467,80.992 356.323,77.847 352.457,77.847C348.592,77.847 345.447,80.992 345.447,84.858C345.447,88.724 348.592,91.869 352.457,91.869C356.323,91.869 359.467,88.724 359.467,84.858" style="fill:rgb(0,0,0);fill-rule:nonzero;"/>
        </g>
        <g transform="matrix(2.5,0,0,7.5,-12.1063,-1437.15)">
            <path d="M249.251,212.626C244.946,212.626 241.455,209.136 241.455,204.829C241.455,200.522 244.946,197.032 249.251,197.032C253.556,197.032 257.047,200.522 257.047,204.829C257.047,209.136 253.556,212.626 249.251,212.626" style="fill:white;fill-rule:nonzero;"/>
        </g>
        <g transform="matrix(2.5,0,0,7.5,-12.1063,-1437.15)">
            <path d="M240.669,204.829C240.669,200.096 244.519,196.246 249.251,196.246C253.983,196.246 257.833,200.096 257.833,204.829C257.833,209.562 253.983,213.412 249.251,213.412C244.519,213.412 240.669,209.562 240.669,204.829M256.261,204.829C256.261,200.963 253.117,197.818 249.251,197.818C245.386,197.818 242.241,200.963 242.241,204.829C242.241,208.695 245.386,211.84 249.251,211.84C253.117,211.84 256.261,208.695 256.261,204.829" style="fill:rgb(0,0,0);fill-rule:nonzero;"/>
        </g>
        <g transform="matrix(2.5,0,0,7.5,-12.1063,-628.766)">
            <path d="M291.062,158.734C286.757,158.734 283.266,155.244 283.266,150.937C283.266,146.63 286.757,143.14 291.062,143.14C295.367,143.14 298.858,146.63 298.858,150.937C298.858,155.244 295.367,158.734 291.062,158.734" style="fill:white;fill-rule:nonzero;"/>
        </g>
        <g transform="matrix(2.5,0,0,7.5,-12.1063,-628.766)">
            <path d="M282.48,150.937C282.48,146.204 286.33,142.354 291.062,142.354C295.794,142.354 299.644,146.204 299.644,150.937C299.644,155.67 295.794,159.52 291.062,159.52C286.33,159.52 282.48,155.67 282.48,150.937M298.072,150.937C298.072,147.071 294.928,143.926 291.062,143.926C287.197,143.926 284.052,147.071 284.052,150.937C284.052,154.803 287.197,157.948 291.062,157.948C294.928,157.948 298.072,154.803 298.072,150.937" style="fill:rgb(0,0,0);fill-rule:nonzero;"/>
        </g>
        <g transform="matrix(2.5,0,0,7.5,-12.1063,-962.824)">
            <path d="M383.641,175.901C383.641,175.628 383.782,175.365 384.036,175.219L393.403,169.834C393.779,169.617 394.26,169.747 394.476,170.124C394.692,170.501 394.563,170.979 394.186,171.197L384.818,176.582C384.442,176.798 383.962,176.668 383.746,176.292C383.675,176.169 383.641,176.034 383.641,175.901" style="fill:rgb(0,0,0);fill-rule:nonzero;"/>
        </g>
        <g transform="matrix(2.5,0,0,7.5,-12.1063,-665.449)">
            <path d="M408.619,156.352C408.619,156.082 408.758,155.819 409.008,155.673L419.169,149.735C419.544,149.517 420.025,149.643 420.244,150.017C420.461,150.395 420.336,150.875 419.962,151.092L409.802,157.03C409.426,157.248 408.945,157.123 408.726,156.748C408.654,156.623 408.619,156.486 408.619,156.352" style="fill:rgb(0,0,0);fill-rule:nonzero;"/>
        </g>
        <g transform="matrix(2.5,0,0,7.5,-12.1063,-731.779)">
            <path d="M386.07,151.297C386.07,151.09 386.151,150.884 386.313,150.729C386.626,150.429 387.124,150.44 387.423,150.754L399.889,163.768C400.19,164.081 400.18,164.578 399.866,164.879C399.552,165.18 399.055,165.169 398.755,164.855L386.289,151.84C386.142,151.688 386.07,151.493 386.07,151.297" style="fill:rgb(0,0,0);fill-rule:nonzero;"/>
        </g>
        <g transform="matrix(2.5,0,0,7.5,-12.1063,-485.951)">
            <path d="M394.253,143.162C394.253,142.933 394.352,142.707 394.543,142.552L398.834,139.062C399.171,138.788 399.666,138.838 399.939,139.175C400.213,139.513 400.161,140.007 399.825,140.28L395.535,143.771C395.198,144.044 394.703,143.994 394.43,143.657C394.311,143.511 394.253,143.336 394.253,143.162" style="fill:rgb(0,0,0);fill-rule:nonzero;"/>
        </g>
        <g transform="matrix(2.5,0,0,7.5,-12.1063,-104.089)">
            <path d="M361.445,117.197C361.445,116.978 361.536,116.76 361.714,116.605L364.554,114.127C364.881,113.843 365.377,113.876 365.663,114.203C365.947,114.529 365.914,115.026 365.587,115.312L362.747,117.79C362.42,118.074 361.924,118.04 361.638,117.713C361.509,117.565 361.445,117.38 361.445,117.197" style="fill:rgb(0,0,0);fill-rule:nonzero;"/>
        </g>
        <g transform="matrix(2.5,0,0,7.5,-12.1063,-313.241)">
            <path d="M372.533,133.379C372.533,133.107 372.674,132.843 372.927,132.697L385.011,125.744C385.388,125.528 385.868,125.657 386.085,126.033C386.3,126.41 386.172,126.89 385.796,127.107L373.711,134.06C373.334,134.276 372.854,134.146 372.637,133.771C372.567,133.647 372.533,133.512 372.533,133.379" style="fill:rgb(0,0,0);fill-rule:nonzero;"/>
        </g>
        <g transform="matrix(2.5,0,0,7.5,-12.1063,146.216)">
            <path d="M353.243,106.046C353.243,105.972 353.254,105.895 353.276,105.82L357.352,92.271C357.477,91.855 357.915,91.619 358.331,91.744C358.746,91.869 358.983,92.307 358.858,92.724L354.782,106.272C354.657,106.688 354.218,106.924 353.803,106.799C353.463,106.696 353.243,106.385 353.243,106.046" style="fill:rgb(0,0,0);fill-rule:nonzero;"/>
        </g>
        <g transform="matrix(2.5,0,0,7.5,-12.1063,-568.001)">
            <path d="M349.657,148.6C349.657,148.429 349.713,148.256 349.828,148.112L352.556,144.682C352.826,144.342 353.321,144.286 353.66,144.556C354,144.824 354.057,145.319 353.786,145.659L351.058,149.09C350.787,149.43 350.293,149.486 349.954,149.215C349.758,149.061 349.657,148.832 349.657,148.6" style="fill:rgb(0,0,0);fill-rule:nonzero;"/>
        </g>
        <g transform="matrix(2.5,0,0,7.5,-12.1063,-833.284)">
            <path d="M344.055,159.346C344.055,159.11 344.161,158.876 344.363,158.722C344.707,158.457 345.2,158.523 345.464,158.867L353.484,169.32C353.748,169.666 353.682,170.159 353.339,170.421C352.995,170.686 352.501,170.621 352.237,170.276L344.218,159.823C344.108,159.681 344.055,159.513 344.055,159.346" style="fill:rgb(0,0,0);fill-rule:nonzero;"/>
        </g>
        <g transform="matrix(2.5,0,0,7.5,-12.1063,-775.976)">
            <path d="M361.189,165.152C361.189,164.865 361.346,164.589 361.62,164.45L379.006,155.65C379.393,155.454 379.866,155.61 380.062,155.997C380.261,156.385 380.104,156.855 379.715,157.053L362.329,165.853C361.943,166.048 361.47,165.893 361.273,165.506C361.216,165.392 361.189,165.271 361.189,165.152" style="fill:rgb(0,0,0);fill-rule:nonzero;"/>
        </g>
        <g transform="matrix(2.5,0,0,7.5,-12.1063,-341.554)">
            <path d="M351.022,126.426C351.022,126.241 351.086,126.056 351.218,125.906C351.505,125.581 352.002,125.549 352.327,125.837L364.498,136.564C364.824,136.851 364.855,137.349 364.568,137.673C364.281,137.999 363.784,138.03 363.459,137.743L351.288,127.015C351.112,126.86 351.022,126.643 351.022,126.426" style="fill:rgb(0,0,0);fill-rule:nonzero;"/>
        </g>
        <g transform="matrix(2.5,0,0,7.5,-12.1063,-395.036)">
            <path d="M306.387,131.788C306.387,131.65 306.423,131.51 306.5,131.383C306.724,131.011 307.207,130.892 307.578,131.116L319.415,138.248C319.788,138.471 319.908,138.954 319.683,139.327C319.458,139.699 318.976,139.818 318.604,139.594L306.768,132.462C306.522,132.314 306.387,132.054 306.387,131.788" style="fill:rgb(0,0,0);fill-rule:nonzero;"/>
        </g>
        <g transform="matrix(2.5,0,0,7.5,-12.1063,-399.596)">
            <path d="M331.414,139.671C331.414,139.44 331.515,139.21 331.71,139.056L341.782,131.033C342.121,130.763 342.616,130.819 342.886,131.158C343.156,131.5 343.1,131.993 342.761,132.262L332.689,140.285C332.35,140.555 331.855,140.499 331.585,140.16C331.47,140.015 331.414,139.842 331.414,139.671" style="fill:rgb(0,0,0);fill-rule:nonzero;"/>
        </g>
        <g transform="matrix(2.5,0,0,7.5,-12.1063,-336.739)">
            <path d="M287.274,137.31C287.274,137.12 287.342,136.93 287.481,136.779L298.193,125.095C298.486,124.775 298.983,124.754 299.303,125.047C299.623,125.34 299.645,125.836 299.352,126.157L288.639,137.841C288.346,138.161 287.849,138.183 287.529,137.889C287.36,137.734 287.274,137.523 287.274,137.31" style="fill:rgb(0,0,0);fill-rule:nonzero;"/>
        </g>
        <g transform="matrix(2.5,0,0,7.5,-12.1063,-541.699)">
            <path d="M296.523,143.992C296.523,143.819 296.58,143.646 296.696,143.501C296.967,143.162 297.462,143.108 297.801,143.38L300.641,145.659C300.979,145.931 301.032,146.426 300.762,146.764C300.491,147.102 299.995,147.157 299.657,146.885L296.817,144.606C296.624,144.45 296.523,144.222 296.523,143.992" style="fill:rgb(0,0,0);fill-rule:nonzero;"/>
        </g>
        <g transform="matrix(2.5,0,0,7.5,-12.1063,-747.619)">
            <path d="M270.45,155.088C270.45,154.956 270.483,154.823 270.553,154.7C270.768,154.323 271.248,154.191 271.625,154.406L284.861,161.949C285.237,162.164 285.37,162.643 285.155,163.021C284.94,163.398 284.459,163.53 284.082,163.315L270.847,155.772C270.593,155.627 270.45,155.361 270.45,155.088" style="fill:rgb(0,0,0);fill-rule:nonzero;"/>
        </g>
        <g transform="matrix(2.5,0,0,7.5,-12.1063,-1222.2)">
            <path d="M250.472,183.697C250.472,183.362 250.688,183.051 251.025,182.946C251.439,182.817 251.879,183.049 252.008,183.464L256.238,197.069C256.366,197.488 256.136,197.924 255.721,198.053C255.307,198.182 254.866,197.95 254.737,197.536L250.507,183.93C250.484,183.853 250.472,183.774 250.472,183.697" style="fill:rgb(0,0,0);fill-rule:nonzero;"/>
        </g>
        <g transform="matrix(2.5,0,0,7.5,-12.1063,-921.859)">
            <path d="M260.827,168.944C260.827,168.72 260.922,168.498 261.106,168.342C261.438,168.063 261.934,168.105 262.214,168.437L264.798,171.503C265.079,171.836 265.036,172.33 264.704,172.611C264.372,172.89 263.876,172.848 263.597,172.516L261.012,169.45C260.888,169.302 260.827,169.123 260.827,168.944" style="fill:rgb(0,0,0);fill-rule:nonzero;"/>
        </g>
        <g transform="matrix(2.5,0,0,7.5,-12.1063,-282.776)">
            <path d="M259.921,124.393C259.921,124.293 259.939,124.192 259.98,124.095C260.144,123.693 260.604,123.501 261.005,123.666L277.956,130.622C278.358,130.786 278.551,131.249 278.384,131.647C278.22,132.049 277.76,132.241 277.359,132.076L260.408,125.12C260.104,124.995 259.921,124.702 259.921,124.393" style="fill:rgb(0,0,0);fill-rule:nonzero;"/>
        </g>
        <g transform="matrix(2.5,0,0,7.5,-12.1063,-239.576)">
            <path d="M241.888,129.902C241.888,129.713 241.956,129.524 242.091,129.374L250.995,119.552C251.286,119.23 251.784,119.206 252.105,119.497C252.428,119.788 252.45,120.286 252.16,120.608L243.256,130.43C242.965,130.752 242.467,130.776 242.146,130.484C241.975,130.329 241.888,130.116 241.888,129.902" style="fill:rgb(0,0,0);fill-rule:nonzero;"/>
        </g>
        <g transform="matrix(2.5,0,0,7.5,-12.1063,-469.631)">
            <path d="M248.939,137.51C248.939,137.231 249.087,136.962 249.348,136.819C249.729,136.611 250.207,136.752 250.415,137.132L253.492,142.77C253.699,143.151 253.56,143.628 253.179,143.837C252.798,144.045 252.32,143.904 252.112,143.523L249.035,137.886C248.97,137.766 248.939,137.637 248.939,137.51" style="fill:rgb(0,0,0);fill-rule:nonzero;"/>
        </g>
        <g transform="matrix(2.5,0,0,7.5,-12.1063,-707.156)">
            <path d="M249.402,161.598C249.402,161.379 249.492,161.162 249.671,161.006L262.099,150.137C262.426,149.851 262.922,149.884 263.208,150.211C263.494,150.535 263.462,151.032 263.133,151.32L250.705,162.19C250.378,162.475 249.882,162.442 249.596,162.115C249.466,161.966 249.402,161.782 249.402,161.598" style="fill:rgb(0,0,0);fill-rule:nonzero;"/>
        </g>
        <g transform="matrix(2.5,0,0,7.5,-12.1063,-685.676)">
            <path d="M227.063,150.727C227.063,150.577 227.106,150.425 227.195,150.292C227.436,149.93 227.924,149.833 228.285,150.074L240.29,158.08C240.651,158.32 240.749,158.81 240.507,159.17C240.267,159.532 239.778,159.629 239.418,159.388L227.413,151.382C227.186,151.23 227.063,150.981 227.063,150.727" style="fill:rgb(0,0,0);fill-rule:nonzero;"/>
        </g>
        <g transform="matrix(2.5,0,0,7.5,-12.1063,-84.8063)">
            <path d="M88.1,122.47C83.795,122.47 80.304,118.98 80.304,114.673C80.304,110.366 83.795,106.876 88.1,106.876C92.405,106.876 95.896,110.366 95.896,114.673C95.896,118.98 92.405,122.47 88.1,122.47" style="fill:rgb(215,35,35);fill-rule:nonzero;"/>
        </g>
        <g transform="matrix(2.5,0,0,7.5,-12.1063,-84.8063)">
            <path d="M79.518,114.673C79.518,109.94 83.368,106.09 88.1,106.09C92.832,106.09 96.682,109.94 96.682,114.673C96.682,119.406 92.832,123.256 88.1,123.256C83.368,123.256 79.518,119.406 79.518,114.673M95.11,114.673C95.11,110.807 91.966,107.662 88.1,107.662C84.235,107.662 81.09,110.807 81.09,114.673C81.09,118.539 84.235,121.684 88.1,121.684C91.966,121.684 95.11,118.539 95.11,114.673" style="fill:rgb(215,35,35);fill-rule:nonzero;"/>
        </g>
        <g transform="matrix(2.5,0,0,7.5,-12.1063,-118.121)">
            <path d="M31.001,124.691C26.696,124.691 23.205,121.201 23.205,116.894C23.205,112.587 26.696,109.097 31.001,109.097C35.306,109.097 38.797,112.587 38.797,116.894C38.797,121.201 35.306,124.691 31.001,124.691" style="fill:white;fill-rule:nonzero;"/>
        </g>
        <g transform="matrix(2.5,0,0,7.5,-12.1063,-118.121)">
            <path d="M22.419,116.894C22.419,112.161 26.269,108.311 31.001,108.311C35.733,108.311 39.583,112.161 39.583,116.894C39.583,121.627 35.733,125.477 31.001,125.477C26.269,125.477 22.419,121.627 22.419,116.894M38.011,116.894C38.011,113.028 34.866,109.883 31.001,109.883C27.136,109.883 23.991,113.028 23.991,116.894C23.991,120.76 27.136,123.905 31.001,123.905C34.866,123.905 38.011,120.76 38.011,116.894" style="fill:rgb(0,0,0);fill-rule:nonzero;"/>
        </g>
        <g transform="matrix(2.48427,-0.839915,-0.279972,-7.45282,38.4699,1779.1)">
            <path d="M180.794,164.255C177.35,164.254 174.557,167.047 174.557,170.491C174.557,173.937 177.35,176.73 180.794,176.729C184.237,176.73 187.03,173.938 187.03,170.493C187.03,167.047 184.238,164.254 180.794,164.255" style="fill:white;fill-rule:nonzero;"/>
        </g>
        <g transform="matrix(2.5,0,0,7.5,-12.1063,-922.099)">
            <path d="M173.77,170.485C173.77,166.911 176.451,163.914 180.007,163.514C181.871,163.303 183.705,163.832 185.171,165.001C186.638,166.171 187.563,167.842 187.772,169.706C188.214,173.613 185.396,177.042 181.58,177.472C179.716,177.682 177.882,177.154 176.415,175.984C174.949,174.815 174.025,173.144 173.815,171.28C173.785,171.013 173.77,170.748 173.77,170.485M186.245,170.501C186.245,170.297 186.234,170.091 186.21,169.883C186.047,168.435 185.33,167.138 184.192,166.23C183.053,165.323 181.63,164.913 180.183,165.076C177.22,165.409 175.028,168.07 175.377,171.103C175.54,172.551 176.257,173.848 177.395,174.756C178.533,175.664 179.957,176.073 181.404,175.91C184.164,175.6 186.245,173.274 186.245,170.501" style="fill:rgb(0,0,0);fill-rule:nonzero;"/>
        </g>
        <g transform="matrix(2.5,0,0,7.5,-12.1063,-466.046)">
            <path d="M188.59,147.886C184.285,147.886 180.794,144.396 180.794,140.089C180.794,135.782 184.285,132.292 188.59,132.292C192.895,132.292 196.386,135.782 196.386,140.089C196.386,144.396 192.895,147.886 188.59,147.886" style="fill:white;fill-rule:nonzero;"/>
        </g>
        <g transform="matrix(2.5,0,0,7.5,-12.1063,-466.046)">
            <path d="M180.008,140.089C180.008,135.356 183.858,131.506 188.59,131.506C193.322,131.506 197.172,135.356 197.172,140.089C197.172,144.822 193.322,148.672 188.59,148.672C183.858,148.672 180.008,144.822 180.008,140.089M195.6,140.089C195.6,136.223 192.456,133.078 188.59,133.078C184.725,133.078 181.58,136.223 181.58,140.089C181.58,143.955 184.725,147.1 188.59,147.1C192.456,147.1 195.6,143.955 195.6,140.089" style="fill:rgb(0,0,0);fill-rule:nonzero;"/>
        </g>
        <g transform="matrix(2.5,0,0,7.5,-12.1063,-609.064)">
            <path d="M199.343,155.861C195.899,155.861 193.106,153.069 193.106,149.623C193.106,146.178 195.899,143.386 199.343,143.386C202.787,143.386 205.58,146.178 205.58,149.623C205.58,153.069 202.787,155.861 199.343,155.861" style="fill:white;fill-rule:nonzero;"/>
        </g>
        <g transform="matrix(2.5,0,0,7.5,-12.1063,-609.056)">
            <path d="M192.321,149.623C192.321,145.751 195.471,142.6 199.344,142.6C203.216,142.6 206.366,145.751 206.366,149.623C206.366,153.495 203.216,156.646 199.344,156.646C195.471,156.646 192.321,153.495 192.321,149.623M204.795,149.623C204.795,146.617 202.35,144.171 199.344,144.171C196.338,144.171 193.893,146.617 193.893,149.623C193.893,152.629 196.338,155.075 199.344,155.075C202.35,155.075 204.795,152.629 204.795,149.623" style="fill:rgb(0,0,0);fill-rule:nonzero;"/>
        </g>
        <g transform="matrix(2.5,0,0,7.5,-12.1063,-851.921)">
            <path d="M15.409,173.611C11.104,173.611 7.613,170.121 7.613,165.814C7.613,161.507 11.104,158.017 15.409,158.017C19.714,158.017 23.205,161.507 23.205,165.814C23.205,170.121 19.714,173.611 15.409,173.611" style="fill:white;fill-rule:nonzero;"/>
        </g>
        <g transform="matrix(2.5,0,0,7.5,-12.1063,-851.921)">
            <path d="M6.827,165.814C6.827,161.081 10.677,157.231 15.409,157.231C20.141,157.231 23.991,161.081 23.991,165.814C23.991,170.547 20.141,174.397 15.409,174.397C10.677,174.397 6.827,170.547 6.827,165.814M22.419,165.814C22.419,161.948 19.275,158.803 15.409,158.803C11.544,158.803 8.399,161.948 8.399,165.814C8.399,169.68 11.544,172.825 15.409,172.825C19.275,172.825 22.419,169.68 22.419,165.814" style="fill:rgb(0,0,0);fill-rule:nonzero;"/>
        </g>
        <g transform="matrix(2.5,0,0,7.5,-12.1063,-84.7988)">
            <path d="M156.007,120.91C152.563,120.91 149.77,118.118 149.77,114.673C149.77,111.227 152.563,108.435 156.007,108.435C159.451,108.435 162.244,111.227 162.244,114.673C162.244,118.118 159.451,120.91 156.007,120.91" style="fill:white;fill-rule:nonzero;"/>
        </g>
        <g transform="matrix(2.5,0,0,7.5,-12.1063,-84.8137)">
            <path d="M148.984,114.674C148.984,110.802 152.134,107.65 156.007,107.65C159.879,107.65 163.029,110.802 163.029,114.674C163.029,118.546 159.879,121.697 156.007,121.697C152.134,121.697 148.984,118.546 148.984,114.674M161.458,114.674C161.458,111.668 159.013,109.222 156.007,109.222C153.001,109.222 150.556,111.668 150.556,114.674C150.556,117.68 153.001,120.126 156.007,120.126C159.013,120.126 161.458,117.68 161.458,114.674" style="fill:rgb(0,0,0);fill-rule:nonzero;"/>
        </g>
        <g transform="matrix(2.5,0,0,7.5,-12.1063,-235.084)">
            <path d="M163.664,130.929C160.22,130.929 157.427,128.137 157.427,124.692C157.427,121.246 160.22,118.454 163.664,118.454C167.108,118.454 169.901,121.246 169.901,124.692C169.901,128.137 167.108,130.929 163.664,130.929" style="fill:white;fill-rule:nonzero;"/>
        </g>
        <g transform="matrix(2.5,0,0,7.5,-12.1063,-235.084)">
            <path d="M156.641,124.692C156.641,120.82 159.791,117.668 163.664,117.668C167.536,117.668 170.686,120.82 170.686,124.692C170.686,128.564 167.536,131.715 163.664,131.715C159.791,131.715 156.641,128.564 156.641,124.692M169.115,124.692C169.115,121.686 166.67,119.24 163.664,119.24C160.658,119.24 158.213,121.686 158.213,124.692C158.213,127.698 160.658,130.144 163.664,130.144C166.67,130.144 169.115,127.698 169.115,124.692" style="fill:rgb(0,0,0);fill-rule:nonzero;"/>
        </g>
        <g transform="matrix(2.5,0,0,7.5,-12.1063,-539.074)">
            <path d="M141.569,151.195C138.125,151.195 135.332,148.403 135.332,144.957C135.332,141.512 138.125,138.72 141.569,138.72C145.013,138.72 147.806,141.512 147.806,144.957C147.806,148.403 145.013,151.195 141.569,151.195" style="fill:white;fill-rule:nonzero;"/>
        </g>
        <g transform="matrix(2.5,0,0,7.5,-12.1063,-539.066)">
            <path d="M134.546,144.957C134.546,141.085 137.696,137.934 141.569,137.934C145.441,137.934 148.591,141.085 148.591,144.957C148.591,148.829 145.441,151.98 141.569,151.98C137.696,151.98 134.546,148.829 134.546,144.957M147.02,144.957C147.02,141.951 144.575,139.505 141.569,139.505C138.563,139.505 136.118,141.951 136.118,144.957C136.118,147.963 138.563,150.409 141.569,150.409C144.575,150.409 147.02,147.963 147.02,144.957" style="fill:rgb(0,0,0);fill-rule:nonzero;"/>
        </g>
        <g transform="matrix(2.5,0,0,7.5,-12.1063,-726.904)">
            <path d="M152.61,163.717C149.166,163.717 146.373,160.925 146.373,157.479C146.373,154.034 149.166,151.242 152.61,151.242C156.054,151.242 158.847,154.034 158.847,157.479C158.847,160.925 156.054,163.717 152.61,163.717" style="fill:white;fill-rule:nonzero;"/>
        </g>
        <g transform="matrix(2.5,0,0,7.5,-12.1063,-726.889)">
            <path d="M145.587,157.478C145.587,153.606 148.737,150.455 152.61,150.455C156.482,150.455 159.632,153.606 159.632,157.478C159.632,161.35 156.482,164.502 152.61,164.502C148.737,164.502 145.587,161.35 145.587,157.478M158.061,157.478C158.061,154.472 155.616,152.026 152.61,152.026C149.604,152.026 147.159,154.472 147.159,157.478C147.159,160.484 149.604,162.93 152.61,162.93C155.616,162.93 158.061,160.484 158.061,157.478" style="fill:rgb(0,0,0);fill-rule:nonzero;"/>
        </g>
        <g transform="matrix(2.5,0,0,7.5,-12.1063,-421.939)">
            <path d="M49.264,143.386C45.82,143.386 43.027,140.594 43.027,137.148C43.027,133.703 45.82,130.911 49.264,130.911C52.708,130.911 55.501,133.703 55.501,137.148C55.501,140.594 52.708,143.386 49.264,143.386" style="fill:white;fill-rule:nonzero;"/>
        </g>
        <g transform="matrix(2.5,0,0,7.5,-12.1063,-421.931)">
            <path d="M42.242,137.148C42.242,133.276 45.392,130.125 49.265,130.125C53.137,130.125 56.287,133.276 56.287,137.148C56.287,141.02 53.137,144.171 49.265,144.171C45.392,144.171 42.242,141.02 42.242,137.148M54.716,137.148C54.716,134.142 52.271,131.696 49.265,131.696C46.259,131.696 43.814,134.142 43.814,137.148C43.814,140.154 46.259,142.6 49.265,142.6C52.271,142.6 54.716,140.154 54.716,137.148" style="fill:rgb(0,0,0);fill-rule:nonzero;"/>
        </g>
        <g transform="matrix(2.5,0,0,7.5,-12.1063,-609.064)">
            <path d="M38.798,155.861C35.354,155.861 32.561,153.069 32.561,149.623C32.561,146.178 35.354,143.386 38.798,143.386C42.242,143.386 45.035,146.178 45.035,149.623C45.035,153.069 42.242,155.861 38.798,155.861" style="fill:white;fill-rule:nonzero;"/>
        </g>
        <g transform="matrix(2.5,0,0,7.5,-12.1063,-609.056)">
            <path d="M31.775,149.623C31.775,145.751 34.925,142.6 38.798,142.6C42.67,142.6 45.82,145.751 45.82,149.623C45.82,153.495 42.67,156.646 38.798,156.646C34.925,156.646 31.775,153.495 31.775,149.623M44.249,149.623C44.249,146.617 41.804,144.171 38.798,144.171C35.792,144.171 33.347,146.617 33.347,149.623C33.347,152.629 35.792,155.075 38.798,155.075C41.804,155.075 44.249,152.629 44.249,149.623" style="fill:rgb(0,0,0);fill-rule:nonzero;"/>
        </g>
        <g transform="matrix(2.5,0,0,7.5,-12.1063,-1062.44)">
            <path d="M52.358,186.086C48.914,186.086 46.121,183.294 46.121,179.848C46.121,176.403 48.914,173.611 52.358,173.611C55.802,173.611 58.595,176.403 58.595,179.848C58.595,183.294 55.802,186.086 52.358,186.086" style="fill:white;fill-rule:nonzero;"/>
        </g>
        <g transform="matrix(2.5,0,0,7.5,-12.1063,-1062.45)">
            <path d="M45.335,179.849C45.335,175.977 48.485,172.826 52.358,172.826C56.23,172.826 59.38,175.977 59.38,179.849C59.38,183.721 56.23,186.872 52.358,186.872C48.485,186.872 45.335,183.721 45.335,179.849M57.809,179.849C57.809,176.843 55.364,174.397 52.358,174.397C49.352,174.397 46.907,176.843 46.907,179.849C46.907,182.855 49.352,185.301 52.358,185.301C55.364,185.301 57.809,182.855 57.809,179.849" style="fill:rgb(0,0,0);fill-rule:nonzero;"/>
        </g>
        <g transform="matrix(2.5,0,0,7.5,-12.1063,-898.894)">
            <path d="M60.166,175.183C56.722,175.183 53.929,172.391 53.929,168.945C53.929,165.5 56.722,162.708 60.166,162.708C63.61,162.708 66.403,165.5 66.403,168.945C66.403,172.391 63.61,175.183 60.166,175.183" style="fill:white;fill-rule:nonzero;"/>
        </g>
        <g transform="matrix(2.5,0,0,7.5,-12.1063,-898.886)">
            <path d="M53.144,168.945C53.144,165.073 56.294,161.922 60.167,161.922C64.039,161.922 67.189,165.073 67.189,168.945C67.189,172.817 64.039,175.968 60.167,175.968C56.294,175.968 53.144,172.817 53.144,168.945M65.618,168.945C65.618,165.939 63.173,163.493 60.167,163.493C57.161,163.493 54.716,165.939 54.716,168.945C54.716,171.951 57.161,174.397 60.167,174.397C63.173,174.397 65.618,171.951 65.618,168.945" style="fill:rgb(0,0,0);fill-rule:nonzero;"/>
        </g>
        <g transform="matrix(2.5,0,0,7.5,-12.1063,-539.074)">
            <path d="M95.897,151.195C92.453,151.195 89.66,148.403 89.66,144.957C89.66,141.512 92.453,138.72 95.897,138.72C99.341,138.72 102.134,141.512 102.134,144.957C102.134,148.403 99.341,151.195 95.897,151.195" style="fill:white;fill-rule:nonzero;"/>
        </g>
        <g transform="matrix(2.5,0,0,7.5,-12.1063,-539.066)">
            <path d="M88.874,144.957C88.874,141.085 92.024,137.934 95.897,137.934C99.769,137.934 102.919,141.085 102.919,144.957C102.919,148.829 99.769,151.98 95.897,151.98C92.024,151.98 88.874,148.829 88.874,144.957M101.348,144.957C101.348,141.951 98.903,139.505 95.897,139.505C92.891,139.505 90.446,141.951 90.446,144.957C90.446,147.963 92.891,150.409 95.897,150.409C98.903,150.409 101.348,147.963 101.348,144.957" style="fill:rgb(0,0,0);fill-rule:nonzero;"/>
        </g>
        <g transform="matrix(2.5,0,0,7.5,-12.1063,-225.334)">
            <path d="M77.03,130.279C73.586,130.279 70.793,127.487 70.793,124.041C70.793,120.596 73.586,117.804 77.03,117.804C80.474,117.804 83.267,120.596 83.267,124.041C83.267,127.487 80.474,130.279 77.03,130.279" style="fill:white;fill-rule:nonzero;"/>
        </g>
        <g transform="matrix(2.5,0,0,7.5,-12.1063,-225.326)">
            <path d="M70.008,124.041C70.008,120.169 73.158,117.018 77.031,117.018C80.903,117.018 84.053,120.169 84.053,124.041C84.053,127.913 80.903,131.064 77.031,131.064C73.158,131.064 70.008,127.913 70.008,124.041M82.482,124.041C82.482,121.035 80.037,118.589 77.031,118.589C74.025,118.589 71.58,121.035 71.58,124.041C71.58,127.047 74.025,129.493 77.031,129.493C80.037,129.493 82.482,127.047 82.482,124.041" style="fill:rgb(0,0,0);fill-rule:nonzero;"/>
        </g>
        <g transform="matrix(2.5,0,0,7.5,-12.1063,-1039.05)">
            <path d="M133.773,186.086C129.468,186.086 125.977,182.596 125.977,178.289C125.977,173.982 129.468,170.492 133.773,170.492C138.078,170.492 141.569,173.982 141.569,178.289C141.569,182.596 138.078,186.086 133.773,186.086" style="fill:white;fill-rule:nonzero;"/>
        </g>
        <g transform="matrix(2.5,0,0,7.5,-12.1063,-1039.05)">
            <path d="M125.191,178.289C125.191,173.556 129.041,169.707 133.773,169.707C138.505,169.707 142.355,173.556 142.355,178.289C142.355,183.022 138.505,186.872 133.773,186.872C129.041,186.872 125.191,183.022 125.191,178.289M140.783,178.289C140.783,174.423 137.639,171.278 133.773,171.278C129.908,171.278 126.763,174.423 126.763,178.289C126.763,182.155 129.908,185.3 133.773,185.3C137.639,185.3 140.783,182.155 140.783,178.289" style="fill:rgb(0,0,0);fill-rule:nonzero;"/>
        </g>
        <g transform="matrix(2.5,0,0,7.5,-12.1063,-305.066)">
            <path d="M119.752,137.154C115.447,137.154 111.956,133.664 111.956,129.357C111.956,125.05 115.447,121.56 119.752,121.56C124.057,121.56 127.548,125.05 127.548,129.357C127.548,133.664 124.057,137.154 119.752,137.154" style="fill:white;fill-rule:nonzero;"/>
        </g>
        <g transform="matrix(2.5,0,0,7.5,-12.1063,-305.066)">
            <path d="M111.17,129.357C111.17,124.624 115.02,120.774 119.752,120.774C124.484,120.774 128.334,124.624 128.334,129.357C128.334,134.09 124.484,137.94 119.752,137.94C115.02,137.94 111.17,134.09 111.17,129.357M126.762,129.357C126.762,125.491 123.618,122.346 119.752,122.346C115.887,122.346 112.742,125.491 112.742,129.357C112.742,133.223 115.887,136.368 119.752,136.368C123.618,136.368 126.762,133.223 126.762,129.357" style="fill:rgb(0,0,0);fill-rule:nonzero;"/>
        </g>
        <g transform="matrix(2.5,0,0,7.5,-12.1063,326.569)">
            <path d="M146.234,95.045C141.929,95.045 138.438,91.555 138.438,87.248C138.438,82.941 141.929,79.451 146.234,79.451C150.539,79.451 154.03,82.941 154.03,87.248C154.03,91.555 150.539,95.045 146.234,95.045" style="fill:white;fill-rule:nonzero;"/>
        </g>
        <g transform="matrix(2.5,0,0,7.5,-12.1063,326.569)">
            <path d="M137.652,87.248C137.652,82.515 141.502,78.665 146.234,78.665C150.966,78.665 154.816,82.515 154.816,87.248C154.816,91.981 150.966,95.831 146.234,95.831C141.502,95.831 137.652,91.981 137.652,87.248M153.244,87.248C153.244,83.382 150.1,80.237 146.234,80.237C142.369,80.237 139.224,83.382 139.224,87.248C139.224,91.114 142.369,94.259 146.234,94.259C150.1,94.259 153.244,91.114 153.244,87.248" style="fill:rgb(0,0,0);fill-rule:nonzero;"/>
        </g>
        <g transform="matrix(2.5,0,0,7.5,-12.1063,-1473)">
            <path d="M43.028,215.016C38.722,215.016 35.231,211.526 35.231,207.219C35.231,202.912 38.722,199.422 43.028,199.422C47.333,199.422 50.824,202.912 50.824,207.219C50.824,211.526 47.333,215.016 43.028,215.016" style="fill:white;fill-rule:nonzero;"/>
        </g>
        <g transform="matrix(2.5,0,0,7.5,-12.1063,-1473)">
            <path d="M34.445,207.219C34.445,202.486 38.295,198.636 43.027,198.636C47.759,198.636 51.609,202.486 51.609,207.219C51.609,211.952 47.759,215.802 43.027,215.802C38.295,215.802 34.445,211.952 34.445,207.219M50.037,207.219C50.037,203.353 46.893,200.208 43.027,200.208C39.162,200.208 36.017,203.353 36.017,207.219C36.017,211.085 39.162,214.23 43.027,214.23C46.893,214.23 50.037,211.085 50.037,207.219" style="fill:rgb(0,0,0);fill-rule:nonzero;"/>
        </g>
        <g transform="matrix(2.5,0,0,7.5,-12.1063,-664.616)">
            <path d="M84.839,161.124C80.534,161.124 77.043,157.634 77.043,153.327C77.043,149.02 80.534,145.53 84.839,145.53C89.144,145.53 92.635,149.02 92.635,153.327C92.635,157.634 89.144,161.124 84.839,161.124" style="fill:white;fill-rule:nonzero;"/>
        </g>
        <g transform="matrix(2.5,0,0,7.5,-12.1063,-664.616)">
            <path d="M76.257,153.327C76.257,148.594 80.107,144.744 84.839,144.744C89.571,144.744 93.421,148.594 93.421,153.327C93.421,158.06 89.571,161.91 84.839,161.91C80.107,161.91 76.257,158.06 76.257,153.327M91.849,153.327C91.849,149.461 88.705,146.316 84.839,146.316C80.974,146.316 77.829,149.461 77.829,153.327C77.829,157.193 80.974,160.338 84.839,160.338C88.705,160.338 91.849,157.193 91.849,153.327" style="fill:rgb(0,0,0);fill-rule:nonzero;"/>
        </g>
        <g transform="matrix(2.5,0,0,7.5,-12.1063,-707.501)">
            <path d="M202.396,159.569C202.396,159.298 202.536,159.034 202.788,158.888L214.464,152.124C214.839,151.906 215.32,152.034 215.537,152.41C215.755,152.784 215.626,153.266 215.251,153.483L203.576,160.248C203.2,160.466 202.719,160.338 202.502,159.962C202.43,159.838 202.396,159.703 202.396,159.569" style="fill:rgb(0,0,0);fill-rule:nonzero;"/>
        </g>
        <g transform="matrix(2.5,0,0,7.5,-12.1063,-764.726)">
            <path d="M183.992,154.306C183.992,154.094 184.078,153.882 184.247,153.727C184.566,153.433 185.063,153.455 185.357,153.775L195.81,165.166C196.106,165.483 196.084,165.981 195.763,166.275C195.444,166.569 194.946,166.548 194.653,166.228L184.199,154.837C184.06,154.687 183.992,154.496 183.992,154.306" style="fill:rgb(0,0,0);fill-rule:nonzero;"/>
        </g>
        <g transform="matrix(2.5,0,0,7.5,-12.1063,-521.794)">
            <path d="M189.539,145.551C189.539,145.322 189.638,145.096 189.829,144.941L194.12,141.451C194.457,141.177 194.952,141.227 195.225,141.564C195.499,141.903 195.448,142.397 195.111,142.669L190.821,146.16C190.484,146.434 189.989,146.383 189.716,146.046C189.597,145.9 189.539,145.725 189.539,145.551" style="fill:rgb(0,0,0);fill-rule:nonzero;"/>
        </g>
        <g transform="matrix(2.5,0,0,7.5,-12.1063,-139.946)">
            <path d="M156.144,119.588C156.144,119.366 156.238,119.145 156.42,118.989L159.329,116.512C159.66,116.231 160.155,116.27 160.437,116.601C160.719,116.93 160.679,117.427 160.348,117.709L157.439,120.187C157.109,120.467 156.613,120.428 156.331,120.098C156.205,119.949 156.144,119.768 156.144,119.588" style="fill:rgb(0,0,0);fill-rule:nonzero;"/>
        </g>
        <g transform="matrix(2.5,0,0,7.5,-12.1063,-345.086)">
            <path d="M167.974,135.769C167.974,135.495 168.118,135.228 168.375,135.085L181.68,127.598C182.058,127.383 182.537,127.518 182.75,127.896C182.965,128.275 182.829,128.752 182.451,128.967L169.145,136.453C168.767,136.667 168.288,136.532 168.075,136.154C168.006,136.031 167.974,135.9 167.974,135.769" style="fill:rgb(0,0,0);fill-rule:nonzero;"/>
        </g>
        <g transform="matrix(2.5,0,0,7.5,-12.1063,106.706)">
            <path d="M147.02,108.925C147.02,108.825 147.039,108.724 147.079,108.626L152.853,94.587C153.018,94.185 153.477,93.994 153.879,94.159C154.281,94.326 154.469,94.783 154.307,95.185L148.533,109.224C148.368,109.626 147.909,109.817 147.507,109.652C147.203,109.527 147.02,109.234 147.02,108.925" style="fill:rgb(0,0,0);fill-rule:nonzero;"/>
        </g>
        <g transform="matrix(2.5,0,0,7.5,-12.1063,-617.449)">
            <path d="M143.434,152.803C143.434,152.629 143.492,152.453 143.611,152.307L147.883,147.065C148.157,146.729 148.652,146.678 148.989,146.952C149.324,147.227 149.376,147.723 149.101,148.058L144.829,153.3C144.555,153.636 144.059,153.687 143.723,153.413C143.533,153.257 143.434,153.032 143.434,152.803" style="fill:rgb(0,0,0);fill-rule:nonzero;"/>
        </g>
        <g transform="matrix(2.5,0,0,7.5,-12.1063,-873.896)">
            <path d="M137.831,162.37C137.831,162.16 137.915,161.951 138.08,161.796C138.397,161.5 138.895,161.516 139.191,161.833L148.38,171.65C148.673,171.969 148.66,172.465 148.342,172.762C148.025,173.058 147.529,173.042 147.231,172.725L138.044,162.907C137.902,162.755 137.831,162.563 137.831,162.37" style="fill:rgb(0,0,0);fill-rule:nonzero;"/>
        </g>
        <g transform="matrix(2.5,0,0,7.5,-12.1063,-821.224)">
            <path d="M157.438,167.34C157.438,167.032 157.62,166.74 157.922,166.614L175.112,159.469C175.512,159.303 175.973,159.493 176.139,159.894C176.304,160.293 176.115,160.754 175.715,160.921L158.525,168.066C158.125,168.232 157.664,168.042 157.498,167.642C157.457,167.543 157.438,167.441 157.438,167.34" style="fill:rgb(0,0,0);fill-rule:nonzero;"/>
        </g>
        <g transform="matrix(2.5,0,0,7.5,-12.1063,-380.284)">
            <path d="M144.798,128.654C144.798,128.472 144.861,128.29 144.988,128.141C145.272,127.812 145.768,127.775 146.097,128.058L159.36,139.494C159.69,139.778 159.725,140.274 159.442,140.603C159.158,140.931 158.662,140.968 158.333,140.685L145.07,129.25C144.89,129.094 144.798,128.874 144.798,128.654" style="fill:rgb(0,0,0);fill-rule:nonzero;"/>
        </g>
        <g transform="matrix(2.5,0,0,7.5,-12.1063,-430.886)">
            <path d="M100.163,134.178C100.163,134.04 100.199,133.9 100.276,133.773C100.5,133.401 100.983,133.282 101.354,133.506L113.191,140.638C113.565,140.861 113.683,141.343 113.459,141.717C113.235,142.089 112.752,142.208 112.38,141.984L100.544,134.852C100.298,134.704 100.163,134.444 100.163,134.178" style="fill:rgb(0,0,0);fill-rule:nonzero;"/>
        </g>
        <g transform="matrix(2.5,0,0,7.5,-12.1063,-435.446)">
            <path d="M125.191,142.061C125.191,141.83 125.292,141.601 125.487,141.446L135.559,133.423C135.898,133.153 136.393,133.209 136.663,133.548C136.933,133.888 136.877,134.382 136.538,134.652L126.466,142.675C126.127,142.945 125.632,142.889 125.362,142.55C125.247,142.405 125.191,142.232 125.191,142.061" style="fill:rgb(0,0,0);fill-rule:nonzero;"/>
        </g>
        <g transform="matrix(2.5,0,0,7.5,-12.1063,-372.589)">
            <path d="M81.051,139.7C81.051,139.51 81.119,139.32 81.258,139.169L91.97,127.485C92.263,127.165 92.76,127.144 93.08,127.437C93.401,127.73 93.422,128.226 93.129,128.547L82.416,140.231C82.123,140.551 81.626,140.573 81.306,140.279C81.137,140.125 81.051,139.913 81.051,139.7" style="fill:rgb(0,0,0);fill-rule:nonzero;"/>
        </g>
        <g transform="matrix(2.5,0,0,7.5,-12.1063,-577.549)">
            <path d="M90.3,146.382C90.3,146.209 90.357,146.037 90.473,145.891C90.744,145.553 91.239,145.498 91.578,145.77L94.418,148.05C94.756,148.322 94.809,148.815 94.539,149.154C94.268,149.492 93.773,149.547 93.434,149.275L90.594,146.996C90.401,146.84 90.3,146.612 90.3,146.382" style="fill:rgb(0,0,0);fill-rule:nonzero;"/>
        </g>
        <g transform="matrix(2.5,0,0,7.5,-12.1063,-783.469)">
            <path d="M64.227,157.478C64.227,157.346 64.26,157.213 64.33,157.09C64.545,156.713 65.025,156.581 65.402,156.796L78.638,164.339C79.015,164.554 79.146,165.033 78.932,165.411C78.717,165.788 78.236,165.92 77.86,165.705L64.624,158.162C64.37,158.017 64.227,157.751 64.227,157.478" style="fill:rgb(0,0,0);fill-rule:nonzero;"/>
        </g>
        <g transform="matrix(2.5,0,0,7.5,-12.1063,-1258.05)">
            <path d="M44.249,186.086C44.249,185.751 44.465,185.441 44.8,185.336C45.215,185.207 45.656,185.438 45.785,185.853L50.014,199.458C50.139,199.876 49.911,200.313 49.498,200.442C49.083,200.571 48.643,200.339 48.514,199.925L44.284,186.319C44.26,186.242 44.249,186.163 44.249,186.086" style="fill:rgb(0,0,0);fill-rule:nonzero;"/>
        </g>
        <g transform="matrix(2.5,0,0,7.5,-12.1063,-957.709)">
            <path d="M54.603,171.334C54.603,171.11 54.698,170.888 54.882,170.732C55.214,170.453 55.71,170.495 55.99,170.827L58.574,173.893C58.855,174.226 58.812,174.72 58.48,175.001C58.148,175.28 57.652,175.238 57.373,174.906L54.788,171.84C54.664,171.692 54.603,171.513 54.603,171.334" style="fill:rgb(0,0,0);fill-rule:nonzero;"/>
        </g>
        <g transform="matrix(2.5,0,0,7.5,-12.1063,-318.611)">
            <path d="M53.698,126.782C53.698,126.681 53.716,126.581 53.757,126.484C53.921,126.082 54.381,125.89 54.782,126.055L71.733,133.011C72.135,133.176 72.329,133.637 72.162,134.036C71.997,134.438 71.537,134.63 71.136,134.465L54.185,127.509C53.881,127.384 53.698,127.091 53.698,126.782" style="fill:rgb(0,0,0);fill-rule:nonzero;"/>
        </g>
        <g transform="matrix(2.5,0,0,7.5,-12.1063,-275.426)">
            <path d="M35.665,132.292C35.665,132.103 35.733,131.914 35.868,131.764L44.772,121.942C45.064,121.62 45.561,121.596 45.882,121.887C46.206,122.179 46.227,122.676 45.937,122.998L37.033,132.82C36.742,133.142 36.244,133.166 35.923,132.874C35.752,132.719 35.665,132.506 35.665,132.292" style="fill:rgb(0,0,0);fill-rule:nonzero;"/>
        </g>
        <g transform="matrix(2.5,0,0,7.5,-12.1063,-505.481)">
            <path d="M42.716,139.9C42.716,139.621 42.864,139.352 43.125,139.209C43.506,139.001 43.984,139.142 44.192,139.522L47.269,145.16C47.476,145.542 47.337,146.019 46.956,146.227C46.575,146.435 46.097,146.294 45.889,145.913L42.812,140.276C42.747,140.156 42.716,140.027 42.716,139.9" style="fill:rgb(0,0,0);fill-rule:nonzero;"/>
        </g>
        <g transform="matrix(2.5,0,0,7.5,-12.1063,-742.991)">
            <path d="M43.179,163.987C43.179,163.768 43.27,163.551 43.448,163.395L55.876,152.526C56.203,152.24 56.699,152.273 56.985,152.6C57.271,152.926 57.24,153.421 56.91,153.709L44.482,164.579C44.155,164.864 43.659,164.831 43.373,164.504C43.243,164.355 43.179,164.171 43.179,163.987" style="fill:rgb(0,0,0);fill-rule:nonzero;"/>
        </g>
        <g transform="matrix(2.5,0,0,7.5,-12.1063,-721.526)">
            <path d="M20.84,153.117C20.84,152.967 20.883,152.815 20.972,152.682C21.213,152.321 21.701,152.223 22.062,152.464L34.067,160.47C34.427,160.709 34.525,161.199 34.284,161.56C34.043,161.922 33.555,162.019 33.195,161.778L21.19,153.772C20.963,153.62 20.84,153.371 20.84,153.117" style="fill:rgb(0,0,0);fill-rule:nonzero;"/>
        </g>
        <g transform="matrix(2.5,0,0,7.5,-12.1063,-1003.59)">
            <path d="M393.804,183.722C389.499,183.722 386.008,180.232 386.008,175.925C386.008,171.618 389.499,168.128 393.804,168.128C398.109,168.128 401.6,171.618 401.6,175.925C401.6,180.232 398.109,183.722 393.804,183.722" style="fill:rgb(215,35,35);fill-rule:nonzero;"/>
        </g>
        <g transform="matrix(2.5,0,0,7.5,-12.1063,-1009.05)">
            <path d="M385.543,176.289C385.543,171.556 389.393,167.706 394.125,167.706C398.857,167.706 402.707,171.556 402.707,176.289C402.707,181.022 398.857,184.872 394.125,184.872C389.393,184.872 385.543,181.022 385.543,176.289M401.135,176.289C401.135,172.423 397.991,169.278 394.125,169.278C390.26,169.278 387.115,172.423 387.115,176.289C387.115,180.155 390.26,183.3 394.125,183.3C397.991,183.3 401.135,180.155 401.135,176.289" style="fill:rgb(215,35,35);fill-rule:nonzero;"/>
        </g>
        <g transform="matrix(2.5,0,0,7.5,-12.1063,-992.824)">
            <path d="M181.682,177.901C181.682,177.628 181.824,177.365 182.077,177.219L191.444,171.834C191.82,171.617 192.301,171.747 192.518,172.124C192.733,172.501 192.604,172.979 192.227,173.197L182.859,178.582C182.483,178.798 182.003,178.668 181.787,178.292C181.716,178.169 181.682,178.034 181.682,177.901" style="fill:rgb(0,0,0);fill-rule:nonzero;"/>
        </g>
        <g transform="matrix(2.5,0,0,7.5,-12.1063,-1033.59)">
            <path d="M191.845,185.722C187.54,185.722 184.049,182.232 184.049,177.925C184.049,173.618 187.54,170.128 191.845,170.128C196.15,170.128 199.641,173.618 199.641,177.925C199.641,182.232 196.15,185.722 191.845,185.722" style="fill:rgb(215,35,35);fill-rule:nonzero;"/>
        </g>
        <g transform="matrix(2.5,0,0,7.5,-12.1063,-1039.05)">
            <path d="M183.584,178.289C183.584,173.556 187.434,169.707 192.166,169.707C196.898,169.707 200.748,173.556 200.748,178.289C200.748,183.022 196.898,186.872 192.166,186.872C187.434,186.872 183.584,183.022 183.584,178.289M199.176,178.289C199.176,174.423 196.032,171.278 192.166,171.278C188.301,171.278 185.156,174.423 185.156,178.289C185.156,182.155 188.301,185.3 192.166,185.3C196.032,185.3 199.176,182.155 199.176,178.289" style="fill:rgb(215,35,35);fill-rule:nonzero;"/>
        </g>
    </g>
</svg>
