<svg width="500" height="668" viewBox="0 0 500 668" fill="none" xmlns="http://www.w3.org/2000/svg">
<path d="M250.223 0.721961C250.123 0.821232 250.001 0.941753 249.858 1.08325C249.385 1.55111 248.683 2.2483 247.768 3.16504C245.937 4.99853 243.251 7.71021 239.832 11.2217C232.994 18.2448 223.225 28.4672 211.501 41.2622C188.054 66.8527 156.792 102.731 125.531 143.885C94.2687 185.041 63.0154 231.462 39.5795 278.139C16.1399 324.823 0.54183 371.72 0.541908 413.838C0.531283 563.493 112.366 667.699 250.114 667.697C387.877 667.694 499.421 565.175 499.432 413.823C499.432 371.704 483.863 324.808 460.468 278.126C437.076 231.45 405.882 185.031 374.679 143.877C343.477 102.725 312.274 66.8486 288.871 41.2595C277.17 28.4652 267.42 18.2435 260.595 11.2208C257.182 7.70947 254.501 4.99795 252.674 3.16458C251.76 2.24789 251.06 1.55074 250.588 1.08292C250.445 0.941574 250.324 0.821166 250.223 0.721961Z" fill="white" stroke="#292929"/>
<path d="M250.231 80.6582C250.231 80.6582 48.1315 278.432 48.1317 414.838C48.121 535.917 138.659 620.241 250.121 620.239C361.568 620.236 451.817 537.294 451.828 414.822C451.828 278.417 250.231 80.6582 250.231 80.6582Z" fill="rgb(210, 35, 35)"/>
</svg>
